<?xml version="1.0" encoding="iso-8859-1"?>
<!-- Uploaded to: SVG Repo, www.svgrepo.com, Generator: SVG Repo Mixer Tools -->
<svg height="800px" width="800px" version="1.1" id="Layer_1" xmlns="http://www.w3.org/2000/svg" xmlns:xlink="http://www.w3.org/1999/xlink" 
	 viewBox="0 0 491.52 491.52" xml:space="preserve">
<g>
	<g>
		<g>
			<path d="M471.04,40.96h-102.4h-40.96c-11.305,0-20.48,9.155-20.48,20.48s9.175,20.48,20.48,20.48h20.48v61.44h-81.92h-40.96
				c-11.305,0-20.48,9.155-20.48,20.48s9.175,20.48,20.48,20.48h20.48v61.44h-81.92h-40.96c-11.305,0-20.48,9.155-20.48,20.48
				c0,11.325,9.175,20.48,20.48,20.48h20.48v61.44H61.44H20.48C9.175,348.16,0,357.315,0,368.64c0,11.325,9.175,20.48,20.48,20.48
				h20.48v81.92c0,11.325,9.175,20.48,20.48,20.48h409.6c11.325,0,20.48-9.155,20.48-20.48V61.44
				C491.52,50.115,482.365,40.96,471.04,40.96z"/>
		</g>
	</g>
</g>
</svg>