<?xml version="1.0" encoding="iso-8859-1"?>
<!-- Uploaded to: SVG Repo, www.svgrepo.com, Generator: SVG Repo Mixer Tools -->
<svg height="800px" width="800px" version="1.1" id="Layer_1" xmlns="http://www.w3.org/2000/svg" xmlns:xlink="http://www.w3.org/1999/xlink" 
	 viewBox="0 0 491.6 491.6" xml:space="preserve">
<g>
	<g>
		<path d="M430.2,410.4c-18,0-41-23.4-41-41.7c0-11.3-9.2-20.5-20.5-20.5h-61.4v-20.5h61.4c11.3,0,20.5-9.2,20.5-20.5v-96.3
			c0-76.5-52.6-137.7-122.9-147.8V41h20.6c11.3,0,20.5-9.2,20.5-20.5S298.2,0,286.9,0h-82c-11.3,0-20.5,9.2-20.5,20.5
			S193.6,41,204.9,41h20.5v22.1c-70.3,10.1-122.9,71.3-122.9,147.8v96.3c0,11.3,9.2,20.5,20.5,20.5h61.4v20.5H123
			c-11.3,0-20.5,9.2-20.5,20.5c0,18.3-23,41.7-41,41.7c-11.3,0-20.5,9.2-20.5,20.5v40.2c0,11.3,9.2,20.5,20.5,20.5h368.6
			c11.3,0,20.5-9.2,20.5-20.5v-40.3C450.7,419.5,441.5,410.4,430.2,410.4z M204.9,204.8c0,11.3-9.2,20.5-20.5,20.5
			s-20.5-9.2-20.5-20.5c0-45.2,36.7-81.9,81.9-81.9c11.3,0,20.5,9.2,20.5,20.5c0.1,11.3-9.1,20.4-20.4,20.4
			C223.3,163.8,204.9,182.2,204.9,204.8z M266.4,348.2h-41v-20.5h41V348.2z"/>
	</g>
</g>
</svg>